<mxfile host="app.diagrams.net" modified="2020-09-24T02:22:51.621Z" agent="5.0 (Windows NT 10.0; Win64; x64) AppleWebKit/537.36 (KHTML, like Gecko) Chrome/85.0.4183.121 Safari/537.36" etag="6m0okw12g0VU2msj7IJx" version="13.7.5" type="github">
  <diagram id="inTTeES-J-5N2ADTpzjh" name="Page-1">
    <mxGraphModel dx="1263" dy="1024" grid="1" gridSize="10" guides="1" tooltips="1" connect="1" arrows="1" fold="1" page="1" pageScale="1" pageWidth="827" pageHeight="1169" math="0" shadow="0">
      <root>
        <mxCell id="0" />
        <mxCell id="1" parent="0" />
        <mxCell id="0uK26PB53TMpQl--4l_O-85" value="" style="rounded=0;whiteSpace=wrap;html=1;fontFamily=Helvetica;fontSize=17;" vertex="1" parent="1">
          <mxGeometry x="243.75" y="20" width="546.25" height="760" as="geometry" />
        </mxCell>
        <mxCell id="0uK26PB53TMpQl--4l_O-1" value="사용자" style="shape=umlActor;verticalLabelPosition=bottom;verticalAlign=top;html=1;fontFamily=Helvetica;" vertex="1" parent="1">
          <mxGeometry x="80" y="200" width="40" height="70" as="geometry" />
        </mxCell>
        <mxCell id="0uK26PB53TMpQl--4l_O-5" value="관리자&lt;br&gt;" style="shape=umlActor;verticalLabelPosition=bottom;verticalAlign=top;html=1;fontFamily=Helvetica;" vertex="1" parent="1">
          <mxGeometry x="80" y="480" width="40" height="70" as="geometry" />
        </mxCell>
        <mxCell id="0uK26PB53TMpQl--4l_O-8" value="회원" style="shape=umlActor;verticalLabelPosition=bottom;verticalAlign=top;html=1;fontFamily=Helvetica;" vertex="1" parent="1">
          <mxGeometry x="180" y="170" width="40" height="55" as="geometry" />
        </mxCell>
        <mxCell id="0uK26PB53TMpQl--4l_O-9" value="비회원" style="shape=umlActor;verticalLabelPosition=bottom;verticalAlign=top;html=1;fontFamily=Helvetica;" vertex="1" parent="1">
          <mxGeometry x="180" y="275" width="40" height="55" as="geometry" />
        </mxCell>
        <mxCell id="0uK26PB53TMpQl--4l_O-11" value="" style="endArrow=classic;html=1;fontFamily=Helvetica;entryX=0.5;entryY=0.5;entryDx=0;entryDy=0;entryPerimeter=0;exitX=0.5;exitY=0.5;exitDx=0;exitDy=0;exitPerimeter=0;" edge="1" parent="1" source="0uK26PB53TMpQl--4l_O-1" target="0uK26PB53TMpQl--4l_O-9">
          <mxGeometry width="50" height="50" relative="1" as="geometry">
            <mxPoint x="130" y="340" as="sourcePoint" />
            <mxPoint x="100" y="290" as="targetPoint" />
            <Array as="points" />
          </mxGeometry>
        </mxCell>
        <mxCell id="0uK26PB53TMpQl--4l_O-12" value="" style="endArrow=classic;html=1;fontFamily=Helvetica;exitX=0.5;exitY=0.5;exitDx=0;exitDy=0;exitPerimeter=0;entryX=0.5;entryY=0.5;entryDx=0;entryDy=0;entryPerimeter=0;" edge="1" parent="1" source="0uK26PB53TMpQl--4l_O-1" target="0uK26PB53TMpQl--4l_O-8">
          <mxGeometry width="50" height="50" relative="1" as="geometry">
            <mxPoint x="200" y="350" as="sourcePoint" />
            <mxPoint x="200" y="290" as="targetPoint" />
            <Array as="points" />
          </mxGeometry>
        </mxCell>
        <mxCell id="0uK26PB53TMpQl--4l_O-17" value="Traveler" style="text;html=1;strokeColor=none;fillColor=none;align=center;verticalAlign=middle;whiteSpace=wrap;rounded=0;fontFamily=Helvetica;fontStyle=1;fontSize=17;" vertex="1" parent="1">
          <mxGeometry x="466.88" y="40" width="100" height="30" as="geometry" />
        </mxCell>
        <mxCell id="0uK26PB53TMpQl--4l_O-18" value="" style="rounded=1;whiteSpace=wrap;html=1;fontFamily=Helvetica;fontSize=15;" vertex="1" parent="1">
          <mxGeometry x="610" y="150" width="120" height="170" as="geometry" />
        </mxCell>
        <mxCell id="0uK26PB53TMpQl--4l_O-20" value="게시글 작성" style="text;html=1;strokeColor=none;fillColor=none;align=center;verticalAlign=middle;whiteSpace=wrap;rounded=0;fontFamily=Helvetica;fontSize=12;" vertex="1" parent="1">
          <mxGeometry x="615" y="190" width="110" height="20" as="geometry" />
        </mxCell>
        <mxCell id="0uK26PB53TMpQl--4l_O-21" value="게시글 삭제" style="text;html=1;strokeColor=none;fillColor=none;align=center;verticalAlign=middle;whiteSpace=wrap;rounded=0;fontFamily=Helvetica;fontSize=12;" vertex="1" parent="1">
          <mxGeometry x="630" y="210" width="80" height="20" as="geometry" />
        </mxCell>
        <mxCell id="0uK26PB53TMpQl--4l_O-22" value="공지사항 게시판" style="text;html=1;strokeColor=none;fillColor=none;align=center;verticalAlign=middle;whiteSpace=wrap;rounded=0;fontFamily=Helvetica;fontSize=12;" vertex="1" parent="1">
          <mxGeometry x="625" y="230" width="90" height="20" as="geometry" />
        </mxCell>
        <mxCell id="0uK26PB53TMpQl--4l_O-23" value="질문 게시판" style="text;html=1;strokeColor=none;fillColor=none;align=center;verticalAlign=middle;whiteSpace=wrap;rounded=0;fontFamily=Helvetica;fontSize=12;" vertex="1" parent="1">
          <mxGeometry x="630" y="250" width="80" height="20" as="geometry" />
        </mxCell>
        <mxCell id="0uK26PB53TMpQl--4l_O-24" value="후기 게시판" style="text;html=1;strokeColor=none;fillColor=none;align=center;verticalAlign=middle;whiteSpace=wrap;rounded=0;fontFamily=Helvetica;fontSize=12;" vertex="1" parent="1">
          <mxGeometry x="630" y="270" width="80" height="20" as="geometry" />
        </mxCell>
        <mxCell id="0uK26PB53TMpQl--4l_O-25" value="게시판" style="text;html=1;strokeColor=none;fillColor=none;align=center;verticalAlign=middle;whiteSpace=wrap;rounded=0;fontFamily=Helvetica;fontSize=13;" vertex="1" parent="1">
          <mxGeometry x="645" y="160" width="50" height="20" as="geometry" />
        </mxCell>
        <mxCell id="0uK26PB53TMpQl--4l_O-31" value="댓글" style="text;html=1;strokeColor=none;fillColor=none;align=center;verticalAlign=middle;whiteSpace=wrap;rounded=0;fontFamily=Helvetica;fontSize=12;" vertex="1" parent="1">
          <mxGeometry x="630" y="290" width="80" height="20" as="geometry" />
        </mxCell>
        <mxCell id="0uK26PB53TMpQl--4l_O-41" value="" style="rounded=1;whiteSpace=wrap;html=1;fontFamily=Helvetica;fontSize=15;" vertex="1" parent="1">
          <mxGeometry x="370" y="85" width="120" height="160" as="geometry" />
        </mxCell>
        <mxCell id="0uK26PB53TMpQl--4l_O-42" value="여행지 검색" style="text;html=1;strokeColor=none;fillColor=none;align=center;verticalAlign=middle;whiteSpace=wrap;rounded=0;fontFamily=Helvetica;fontSize=12;" vertex="1" parent="1">
          <mxGeometry x="375" y="125" width="110" height="20" as="geometry" />
        </mxCell>
        <mxCell id="0uK26PB53TMpQl--4l_O-43" value="여행지 예약" style="text;html=1;strokeColor=none;fillColor=none;align=center;verticalAlign=middle;whiteSpace=wrap;rounded=0;fontFamily=Helvetica;fontSize=12;" vertex="1" parent="1">
          <mxGeometry x="390" y="145" width="80" height="20" as="geometry" />
        </mxCell>
        <mxCell id="0uK26PB53TMpQl--4l_O-44" value="예약 취소" style="text;html=1;strokeColor=none;fillColor=none;align=center;verticalAlign=middle;whiteSpace=wrap;rounded=0;fontFamily=Helvetica;fontSize=12;" vertex="1" parent="1">
          <mxGeometry x="385" y="165" width="90" height="20" as="geometry" />
        </mxCell>
        <mxCell id="0uK26PB53TMpQl--4l_O-45" value="여행지 목록 표시" style="text;html=1;strokeColor=none;fillColor=none;align=center;verticalAlign=middle;whiteSpace=wrap;rounded=0;fontFamily=Helvetica;fontSize=12;" vertex="1" parent="1">
          <mxGeometry x="375" y="185" width="110" height="20" as="geometry" />
        </mxCell>
        <mxCell id="0uK26PB53TMpQl--4l_O-46" value="사용자 예약 현황" style="text;html=1;strokeColor=none;fillColor=none;align=center;verticalAlign=middle;whiteSpace=wrap;rounded=0;fontFamily=Helvetica;fontSize=12;" vertex="1" parent="1">
          <mxGeometry x="380" y="205" width="100" height="20" as="geometry" />
        </mxCell>
        <mxCell id="0uK26PB53TMpQl--4l_O-47" value="회원기능" style="text;html=1;strokeColor=none;fillColor=none;align=center;verticalAlign=middle;whiteSpace=wrap;rounded=0;fontFamily=Helvetica;fontSize=13;" vertex="1" parent="1">
          <mxGeometry x="402.5" y="95" width="55" height="20" as="geometry" />
        </mxCell>
        <mxCell id="0uK26PB53TMpQl--4l_O-50" value="" style="rounded=1;whiteSpace=wrap;html=1;fontFamily=Helvetica;fontSize=15;" vertex="1" parent="1">
          <mxGeometry x="340" y="315" width="120" height="110" as="geometry" />
        </mxCell>
        <mxCell id="0uK26PB53TMpQl--4l_O-51" value="여행지 검색" style="text;html=1;strokeColor=none;fillColor=none;align=center;verticalAlign=middle;whiteSpace=wrap;rounded=0;fontFamily=Helvetica;fontSize=12;" vertex="1" parent="1">
          <mxGeometry x="345" y="355" width="110" height="20" as="geometry" />
        </mxCell>
        <mxCell id="0uK26PB53TMpQl--4l_O-54" value="여행지 목록 표시" style="text;html=1;strokeColor=none;fillColor=none;align=center;verticalAlign=middle;whiteSpace=wrap;rounded=0;fontFamily=Helvetica;fontSize=12;" vertex="1" parent="1">
          <mxGeometry x="345" y="385" width="110" height="20" as="geometry" />
        </mxCell>
        <mxCell id="0uK26PB53TMpQl--4l_O-56" value="비회원기능" style="text;html=1;strokeColor=none;fillColor=none;align=center;verticalAlign=middle;whiteSpace=wrap;rounded=0;fontFamily=Helvetica;fontSize=13;" vertex="1" parent="1">
          <mxGeometry x="363.75" y="325" width="72.5" height="20" as="geometry" />
        </mxCell>
        <mxCell id="0uK26PB53TMpQl--4l_O-57" value="" style="rounded=1;whiteSpace=wrap;html=1;fontFamily=Helvetica;fontSize=15;" vertex="1" parent="1">
          <mxGeometry x="615" y="350" width="120" height="110" as="geometry" />
        </mxCell>
        <mxCell id="0uK26PB53TMpQl--4l_O-58" value="결제 목록" style="text;html=1;strokeColor=none;fillColor=none;align=center;verticalAlign=middle;whiteSpace=wrap;rounded=0;fontFamily=Helvetica;fontSize=12;" vertex="1" parent="1">
          <mxGeometry x="620" y="390" width="110" height="20" as="geometry" />
        </mxCell>
        <mxCell id="0uK26PB53TMpQl--4l_O-59" value="결제 승인" style="text;html=1;strokeColor=none;fillColor=none;align=center;verticalAlign=middle;whiteSpace=wrap;rounded=0;fontFamily=Helvetica;fontSize=12;" vertex="1" parent="1">
          <mxGeometry x="620" y="420" width="110" height="20" as="geometry" />
        </mxCell>
        <mxCell id="0uK26PB53TMpQl--4l_O-60" value="결제" style="text;html=1;strokeColor=none;fillColor=none;align=center;verticalAlign=middle;whiteSpace=wrap;rounded=0;fontFamily=Helvetica;fontSize=13;" vertex="1" parent="1">
          <mxGeometry x="638.75" y="360" width="72.5" height="20" as="geometry" />
        </mxCell>
        <mxCell id="0uK26PB53TMpQl--4l_O-61" value="" style="rounded=1;whiteSpace=wrap;html=1;fontFamily=Helvetica;fontSize=15;" vertex="1" parent="1">
          <mxGeometry x="335" y="570" width="120" height="160" as="geometry" />
        </mxCell>
        <mxCell id="0uK26PB53TMpQl--4l_O-62" value="여행지 추가" style="text;html=1;strokeColor=none;fillColor=none;align=center;verticalAlign=middle;whiteSpace=wrap;rounded=0;fontFamily=Helvetica;fontSize=12;" vertex="1" parent="1">
          <mxGeometry x="340" y="610" width="110" height="20" as="geometry" />
        </mxCell>
        <mxCell id="0uK26PB53TMpQl--4l_O-63" value="여행지 삭제" style="text;html=1;strokeColor=none;fillColor=none;align=center;verticalAlign=middle;whiteSpace=wrap;rounded=0;fontFamily=Helvetica;fontSize=12;" vertex="1" parent="1">
          <mxGeometry x="355" y="630" width="80" height="20" as="geometry" />
        </mxCell>
        <mxCell id="0uK26PB53TMpQl--4l_O-64" value="게시판 관리" style="text;html=1;strokeColor=none;fillColor=none;align=center;verticalAlign=middle;whiteSpace=wrap;rounded=0;fontFamily=Helvetica;fontSize=12;" vertex="1" parent="1">
          <mxGeometry x="350" y="650" width="90" height="20" as="geometry" />
        </mxCell>
        <mxCell id="0uK26PB53TMpQl--4l_O-65" value="예약자 목록 확인" style="text;html=1;strokeColor=none;fillColor=none;align=center;verticalAlign=middle;whiteSpace=wrap;rounded=0;fontFamily=Helvetica;fontSize=12;" vertex="1" parent="1">
          <mxGeometry x="340" y="670" width="110" height="20" as="geometry" />
        </mxCell>
        <mxCell id="0uK26PB53TMpQl--4l_O-66" value="예약자 정보 관리" style="text;html=1;strokeColor=none;fillColor=none;align=center;verticalAlign=middle;whiteSpace=wrap;rounded=0;fontFamily=Helvetica;fontSize=12;" vertex="1" parent="1">
          <mxGeometry x="345" y="690" width="100" height="20" as="geometry" />
        </mxCell>
        <mxCell id="0uK26PB53TMpQl--4l_O-67" value="관리지 기능" style="text;html=1;strokeColor=none;fillColor=none;align=center;verticalAlign=middle;whiteSpace=wrap;rounded=0;fontFamily=Helvetica;fontSize=13;" vertex="1" parent="1">
          <mxGeometry x="351.25" y="580" width="83.75" height="20" as="geometry" />
        </mxCell>
        <mxCell id="0uK26PB53TMpQl--4l_O-68" value="" style="rounded=1;whiteSpace=wrap;html=1;fontFamily=Helvetica;fontSize=15;" vertex="1" parent="1">
          <mxGeometry x="615" y="500" width="120" height="110" as="geometry" />
        </mxCell>
        <mxCell id="0uK26PB53TMpQl--4l_O-69" value="관리자 추가" style="text;html=1;strokeColor=none;fillColor=none;align=center;verticalAlign=middle;whiteSpace=wrap;rounded=0;fontFamily=Helvetica;fontSize=12;" vertex="1" parent="1">
          <mxGeometry x="620" y="540" width="110" height="20" as="geometry" />
        </mxCell>
        <mxCell id="0uK26PB53TMpQl--4l_O-70" value="관리자 삭제" style="text;html=1;strokeColor=none;fillColor=none;align=center;verticalAlign=middle;whiteSpace=wrap;rounded=0;fontFamily=Helvetica;fontSize=12;" vertex="1" parent="1">
          <mxGeometry x="635" y="560" width="80" height="20" as="geometry" />
        </mxCell>
        <mxCell id="0uK26PB53TMpQl--4l_O-71" value="관리자 정보 관리" style="text;html=1;strokeColor=none;fillColor=none;align=center;verticalAlign=middle;whiteSpace=wrap;rounded=0;fontFamily=Helvetica;fontSize=12;" vertex="1" parent="1">
          <mxGeometry x="625.63" y="580" width="95" height="20" as="geometry" />
        </mxCell>
        <mxCell id="0uK26PB53TMpQl--4l_O-74" value="관리지 관리" style="text;html=1;strokeColor=none;fillColor=none;align=center;verticalAlign=middle;whiteSpace=wrap;rounded=0;fontFamily=Helvetica;fontSize=13;" vertex="1" parent="1">
          <mxGeometry x="631.25" y="510" width="83.75" height="20" as="geometry" />
        </mxCell>
        <mxCell id="0uK26PB53TMpQl--4l_O-77" value="" style="endArrow=classic;html=1;fontFamily=Helvetica;fontSize=12;exitX=0.5;exitY=0.5;exitDx=0;exitDy=0;exitPerimeter=0;entryX=0;entryY=0.5;entryDx=0;entryDy=0;" edge="1" parent="1" source="0uK26PB53TMpQl--4l_O-8" target="0uK26PB53TMpQl--4l_O-41">
          <mxGeometry width="50" height="50" relative="1" as="geometry">
            <mxPoint x="390" y="500" as="sourcePoint" />
            <mxPoint x="440" y="450" as="targetPoint" />
          </mxGeometry>
        </mxCell>
        <mxCell id="0uK26PB53TMpQl--4l_O-78" value="" style="endArrow=classic;html=1;fontFamily=Helvetica;fontSize=12;exitX=0.5;exitY=0.5;exitDx=0;exitDy=0;exitPerimeter=0;entryX=0;entryY=0.5;entryDx=0;entryDy=0;" edge="1" parent="1" source="0uK26PB53TMpQl--4l_O-8" target="0uK26PB53TMpQl--4l_O-18">
          <mxGeometry width="50" height="50" relative="1" as="geometry">
            <mxPoint x="210" y="207.5" as="sourcePoint" />
            <mxPoint x="304" y="175" as="targetPoint" />
            <Array as="points">
              <mxPoint x="300" y="210" />
              <mxPoint x="300" y="290" />
              <mxPoint x="400" y="290" />
            </Array>
          </mxGeometry>
        </mxCell>
        <mxCell id="0uK26PB53TMpQl--4l_O-80" value="" style="endArrow=classic;html=1;fontFamily=Helvetica;fontSize=12;exitX=0.5;exitY=0.5;exitDx=0;exitDy=0;exitPerimeter=0;entryX=0;entryY=1;entryDx=0;entryDy=0;" edge="1" parent="1" source="0uK26PB53TMpQl--4l_O-9" target="0uK26PB53TMpQl--4l_O-51">
          <mxGeometry width="50" height="50" relative="1" as="geometry">
            <mxPoint x="210" y="207.5" as="sourcePoint" />
            <mxPoint x="380" y="175" as="targetPoint" />
          </mxGeometry>
        </mxCell>
        <mxCell id="0uK26PB53TMpQl--4l_O-81" value="" style="endArrow=classic;html=1;fontFamily=Helvetica;fontSize=12;entryX=0;entryY=1;entryDx=0;entryDy=0;" edge="1" parent="1" target="0uK26PB53TMpQl--4l_O-58">
          <mxGeometry width="50" height="50" relative="1" as="geometry">
            <mxPoint x="400" y="290" as="sourcePoint" />
            <mxPoint x="440" y="300" as="targetPoint" />
            <Array as="points">
              <mxPoint x="520" y="330" />
            </Array>
          </mxGeometry>
        </mxCell>
        <mxCell id="0uK26PB53TMpQl--4l_O-82" value="" style="endArrow=classic;html=1;fontFamily=Helvetica;fontSize=12;exitX=0.5;exitY=0.5;exitDx=0;exitDy=0;exitPerimeter=0;entryX=0;entryY=0.5;entryDx=0;entryDy=0;" edge="1" parent="1" source="0uK26PB53TMpQl--4l_O-5" target="0uK26PB53TMpQl--4l_O-61">
          <mxGeometry width="50" height="50" relative="1" as="geometry">
            <mxPoint x="390" y="350" as="sourcePoint" />
            <mxPoint x="440" y="300" as="targetPoint" />
          </mxGeometry>
        </mxCell>
        <mxCell id="0uK26PB53TMpQl--4l_O-83" value="" style="endArrow=classic;html=1;fontFamily=Helvetica;fontSize=12;exitX=0.5;exitY=0.5;exitDx=0;exitDy=0;exitPerimeter=0;entryX=0;entryY=1;entryDx=0;entryDy=0;" edge="1" parent="1" source="0uK26PB53TMpQl--4l_O-5" target="0uK26PB53TMpQl--4l_O-58">
          <mxGeometry width="50" height="50" relative="1" as="geometry">
            <mxPoint x="110" y="525" as="sourcePoint" />
            <mxPoint x="314" y="640" as="targetPoint" />
          </mxGeometry>
        </mxCell>
        <mxCell id="0uK26PB53TMpQl--4l_O-84" value="" style="endArrow=classic;html=1;fontFamily=Helvetica;fontSize=12;entryX=0;entryY=0.5;entryDx=0;entryDy=0;exitX=0.5;exitY=0.5;exitDx=0;exitDy=0;exitPerimeter=0;" edge="1" parent="1" source="0uK26PB53TMpQl--4l_O-5" target="0uK26PB53TMpQl--4l_O-68">
          <mxGeometry width="50" height="50" relative="1" as="geometry">
            <mxPoint x="230" y="520" as="sourcePoint" />
            <mxPoint x="630" y="420" as="targetPoint" />
          </mxGeometry>
        </mxCell>
        <mxCell id="0uK26PB53TMpQl--4l_O-86" value="" style="rounded=1;whiteSpace=wrap;html=1;fontFamily=Helvetica;fontSize=17;" vertex="1" parent="1">
          <mxGeometry x="475" y="810" width="120" height="60" as="geometry" />
        </mxCell>
        <mxCell id="0uK26PB53TMpQl--4l_O-87" value="결제 시스템" style="text;html=1;strokeColor=none;fillColor=none;align=center;verticalAlign=middle;whiteSpace=wrap;rounded=0;fontFamily=Helvetica;fontSize=17;" vertex="1" parent="1">
          <mxGeometry x="488" y="830" width="100" height="20" as="geometry" />
        </mxCell>
        <mxCell id="0uK26PB53TMpQl--4l_O-88" value="&amp;lt;&amp;lt;Actor&amp;gt;&amp;gt;" style="text;html=1;strokeColor=none;fillColor=none;align=center;verticalAlign=middle;whiteSpace=wrap;rounded=0;fontFamily=Helvetica;fontSize=17;" vertex="1" parent="1">
          <mxGeometry x="500" y="880" width="75" height="20" as="geometry" />
        </mxCell>
        <mxCell id="0uK26PB53TMpQl--4l_O-90" value="" style="endArrow=classic;html=1;fontFamily=Helvetica;fontSize=17;entryX=0.5;entryY=0;entryDx=0;entryDy=0;exitX=1;exitY=0.5;exitDx=0;exitDy=0;" edge="1" parent="1" source="0uK26PB53TMpQl--4l_O-57" target="0uK26PB53TMpQl--4l_O-86">
          <mxGeometry width="50" height="50" relative="1" as="geometry">
            <mxPoint x="740" y="405" as="sourcePoint" />
            <mxPoint x="440" y="450" as="targetPoint" />
            <Array as="points">
              <mxPoint x="770" y="405" />
              <mxPoint x="770" y="650" />
              <mxPoint x="535" y="650" />
            </Array>
          </mxGeometry>
        </mxCell>
      </root>
    </mxGraphModel>
  </diagram>
</mxfile>
